<?xml version="1.0" encoding="UTF-8" standalone="no"?>
<!DOCTYPE svg PUBLIC "-//W3C//DTD SVG 1.1//EN" "http://www.w3.org/Graphics/SVG/1.1/DTD/svg11.dtd">
<svg xmlns="http://www.w3.org/2000/svg" version="1.1" viewBox="0.00 0.00 1773.00 1773.00">
<g stroke-width="2.00" fill="none" stroke-linecap="butt">
<path stroke="#808080" vector-effect="non-scaling-stroke" d="
  M 468.63 887.86
  C 470.86 897.52 476.17 906.75 482.94 914.55
  A 1.00 0.98 35.2 0 1 483.12 915.55
  L 480.87 921.52
  A 2.32 2.31 43.3 0 0 480.93 923.32
  L 486.63 935.87
  A 1.20 1.20 0.0 0 1 486.03 937.46
  L 478.99 940.66
  A 0.57 0.57 0.0 0 0 478.71 941.41
  L 486.66 958.89
  A 1.13 1.13 0.0 0 1 486.10 960.38
  L 472.39 966.61
  A 0.57 0.57 0.0 0 0 472.11 967.37
  L 476.38 976.77
  A 0.87 0.87 0.0 0 1 475.95 977.92
  L 461.55 984.46
  A 0.30 0.29 65.6 0 0 461.41 984.85
  L 472.78 1009.87
  A 0.91 0.90 65.8 0 1 472.33 1011.07
  L 450.62 1020.94
  A 0.22 0.21 -24.8 0 0 450.51 1021.22
  L 453.39 1027.56
  A 0.62 0.62 0.0 0 1 453.09 1028.38
  L 445.12 1032.00
  A 0.48 0.48 0.0 0 0 444.88 1032.64
  L 453.91 1052.51
  A 0.94 0.94 0.0 0 1 453.44 1053.76
  L 433.97 1062.61
  A 0.26 0.25 -25.1 0 0 433.84 1062.95
  L 442.26 1081.47
  A 0.45 0.45 0.0 0 0 442.86 1081.70
  L 454.10 1076.59
  A 2.34 2.32 88.2 0 0 455.33 1075.27
  L 496.92 965.12
  A 0.69 0.68 20.7 0 1 497.81 964.72
  L 507.95 968.54
  A 0.94 0.93 -69.4 0 1 508.49 969.74
  L 471.24 1068.40
  A 0.28 0.28 0.0 0 0 471.61 1068.75
  L 482.37 1063.85
  A 2.05 2.05 0.0 0 0 483.44 1062.71
  L 531.51 935.38
  A 0.61 0.61 0.0 0 1 532.05 934.98
  C 566.33 932.77 591.10 905.88 591.41 871.59
  C 591.42 870.37 591.01 869.47 591.07 868.58
  A 0.67 0.67 0.0 0 1 591.55 867.98
  Q 625.38 858.52 643.08 831.27
  C 667.87 793.09 659.20 742.79 622.79 715.22
  C 605.37 702.03 582.47 695.57 560.26 698.54
  C 515.90 704.45 482.54 742.64 484.67 787.92
  Q 485.49 805.16 492.93 821.02
  A 0.74 0.73 80.7 0 1 492.18 822.07
  Q 489.91 821.81 487.58 820.41
  Q 479.53 815.59 478.48 806.46
  C 478.24 804.33 478.67 801.95 479.00 799.63
  A 10.15 10.08 -44.8 0 0 479.02 796.87
  Q 476.05 774.41 483.62 753.02
  A 0.21 0.20 10.4 0 0 483.43 752.75
  C 449.35 751.80 421.93 777.20 419.25 811.00
  C 418.94 814.96 419.59 819.68 419.45 822.92
  A 1.33 1.31 -16.4 0 1 418.87 823.97
  L 413.74 827.46
  A 1.86 1.83 78.4 0 0 412.97 828.65
  L 410.29 842.91
  A 0.57 0.56 -79.1 0 1 409.64 843.36
  L 401.41 841.81
  A 0.55 0.55 0.0 0 0 400.77 842.25
  L 397.20 861.25
  A 1.05 1.05 0.0 0 1 395.98 862.09
  L 380.98 859.27
  A 0.47 0.47 0.0 0 0 380.43 859.64
  L 378.48 870.04
  A 0.75 0.74 -79.2 0 1 377.61 870.64
  L 362.21 867.74
  A 0.56 0.56 0.0 0 0 361.56 868.19
  L 356.50 895.11
  A 0.74 0.73 -79.1 0 1 355.64 895.70
  L 332.37 891.33
  A 0.56 0.55 10.4 0 0 331.72 891.77
  L 330.54 898.05
  A 0.85 0.84 -79.3 0 1 329.56 898.72
  L 321.38 897.18
  A 0.66 0.65 -79.5 0 0 320.62 897.71
  L 316.60 919.08
  A 0.88 0.87 10.7 0 1 315.57 919.78
  L 294.72 915.87
  A 0.49 0.49 0.0 0 0 294.14 916.26
  L 290.41 936.11
  A 0.47 0.47 0.0 0 0 290.78 936.65
  L 302.50 938.85
  A 3.24 3.21 -56.7 0 0 304.90 938.34
  L 402.08 872.14
  A 0.72 0.72 0.0 0 1 403.08 872.34
  L 409.24 881.38
  A 0.80 0.80 0.0 0 1 409.03 882.49
  L 321.19 942.33
  A 0.03 0.03 0.0 0 0 321.20 942.39
  L 333.79 944.76
  A 0.95 0.91 32.2 0 0 334.48 944.62
  L 446.61 868.23
  A 2.36 2.36 0.0 0 1 449.12 868.15
  C 474.42 883.05 505.16 879.22 525.89 858.55
  A 1.10 1.09 -52.2 0 1 527.22 858.38
  Q 537.03 864.23 548.10 867.24
  A 0.89 0.88 32.2 0 1 548.45 868.76
  Q 539.70 876.29 528.21 872.27
  A 1.10 1.09 35.4 0 0 527.17 872.44
  Q 501.55 892.22 469.13 887.31
  A 0.45 0.45 0.0 0 0 468.63 887.86"
/>
<path stroke="#808080" vector-effect="non-scaling-stroke" d="
  M 1347.23 889.96
  C 1347.27 916.36 1346.85 960.99 1375.81 973.71
  C 1385.33 977.89 1396.36 979.21 1406.66 979.20
  C 1416.96 979.18 1427.98 977.83 1437.49 973.63
  C 1466.42 960.84 1465.88 916.21 1465.84 889.80
  C 1465.81 863.40 1466.23 818.77 1437.27 806.05
  C 1427.75 801.87 1416.72 800.55 1406.42 800.57
  C 1396.12 800.58 1385.10 801.93 1375.59 806.14
  C 1346.66 818.93 1347.20 863.56 1347.23 889.96"
/>
<path stroke="#808080" vector-effect="non-scaling-stroke" d="
  M 1074.63 955.87
  A 0.51 0.51 0.0 0 1 1075.42 955.49
  Q 1075.79 955.72 1076.08 956.11
  C 1085.13 968.31 1095.79 975.34 1110.59 977.60
  C 1129.17 980.43 1149.69 975.01 1162.34 960.32
  C 1178.49 941.59 1180.99 915.08 1174.33 891.84
  C 1168.77 872.48 1154.26 858.09 1134.30 854.06
  C 1111.36 849.43 1087.77 856.15 1076.40 877.94
  A 1.43 1.43 0.0 0 1 1073.70 877.28
  L 1073.70 806.06
  A 2.54 2.53 8.8 0 0 1071.92 803.64
  C 1070.19 803.10 1064.24 802.74 1062.61 804.08
  A 1.49 1.47 -13.9 0 0 1062.12 804.88
  Q 1061.61 807.07 1061.61 807.99
  Q 1061.57 921.50 1061.60 971.25
  C 1061.60 972.97 1062.17 974.94 1064.22 975.27
  C 1068.06 975.87 1073.17 976.53 1073.48 971.25
  Q 1073.97 962.71 1074.63 955.87"
/>
<path stroke="#808080" vector-effect="non-scaling-stroke" d="
  M 1260.75 964.05
  A 0.59 0.59 0.0 0 1 1260.16 964.64
  L 1211.54 964.64
  A 2.37 2.37 0.0 0 0 1209.27 966.32
  Q 1207.95 970.67 1209.38 974.07
  A 2.46 2.46 0.0 0 0 1211.65 975.58
  L 1315.52 975.58
  A 2.48 2.48 0.0 0 0 1317.93 973.70
  Q 1318.87 969.99 1317.89 966.41
  A 2.42 2.41 -7.5 0 0 1315.56 964.63
  L 1273.61 964.63
  A 0.75 0.75 0.0 0 1 1272.86 963.88
  Q 1272.88 885.61 1272.85 806.76
  Q 1272.85 803.37 1269.60 803.25
  Q 1265.44 803.11 1261.57 803.32
  A 3.76 3.73 -67.5 0 0 1259.25 804.29
  C 1248.17 814.31 1233.93 822.08 1218.86 822.81
  Q 1216.09 822.95 1215.90 825.74
  Q 1215.63 829.43 1216.17 831.88
  A 2.88 2.87 -4.2 0 0 1218.78 834.13
  Q 1222.32 834.37 1226.53 833.57
  Q 1245.38 829.96 1259.75 816.96
  A 0.60 0.60 0.0 0 1 1260.75 817.40
  L 1260.75 964.05"
/>
<path stroke="#808080" vector-effect="non-scaling-stroke" d="
  M 923.08 921.59
  Q 947.58 921.51 1018.26 921.60
  C 1021.63 921.60 1024.50 921.08 1025.27 917.51
  C 1025.98 914.17 1025.97 911.89 1025.79 908.16
  C 1024.83 887.59 1014.56 868.29 996.35 858.62
  C 979.50 849.68 958.48 850.08 941.69 859.15
  C 923.50 868.98 912.68 888.08 911.08 908.51
  C 908.31 944.05 928.60 974.75 965.29 978.31
  Q 992.94 980.99 1013.60 962.86
  Q 1015.87 960.87 1017.24 958.97
  A 2.09 2.08 -45.2 0 0 1017.24 956.54
  Q 1015.03 953.44 1012.66 951.80
  A 2.16 2.16 0.0 0 0 1009.94 952.02
  Q 994.55 966.82 974.41 967.38
  C 946.65 968.16 925.85 949.20 922.75 921.96
  A 0.33 0.33 0.0 0 1 923.08 921.59"
/>
<path stroke="#808080" vector-effect="non-scaling-stroke" d="
  M 807.85 879.35
  Q 808.37 879.35 808.49 879.76
  Q 815.62 903.56 835.72 971.52
  C 837.06 976.06 840.30 975.69 844.19 975.60
  Q 849.14 975.48 849.88 975.27
  C 852.59 974.52 852.87 971.85 853.60 969.34
  Q 856.92 957.90 884.05 858.26
  Q 884.88 855.24 882.02 854.96
  Q 878.74 854.65 875.49 854.93
  C 872.96 855.14 871.88 856.35 871.25 858.76
  Q 851.36 935.58 844.77 960.93
  A 0.65 0.65 0.0 0 1 843.68 961.22
  Q 843.33 960.87 843.21 960.46
  Q 841.49 954.61 813.51 856.92
  A 2.58 2.58 0.0 0 0 811.48 855.08
  Q 809.95 854.81 807.84 854.81
  Q 805.74 854.81 804.21 855.09
  A 2.58 2.58 0.0 0 0 802.18 856.92
  Q 774.22 954.62 772.50 960.47
  Q 772.38 960.88 772.03 961.23
  A 0.65 0.65 0.0 0 1 770.94 960.94
  Q 764.35 935.59 744.44 858.77
  C 743.81 856.36 742.73 855.15 740.20 854.94
  Q 736.95 854.66 733.67 854.97
  Q 730.81 855.26 731.64 858.28
  Q 758.79 957.91 762.11 969.35
  C 762.84 971.86 763.12 974.53 765.83 975.28
  Q 766.57 975.49 771.52 975.61
  C 775.41 975.70 778.65 976.07 779.99 971.53
  Q 800.08 903.56 807.20 879.76
  Q 807.32 879.35 807.85 879.35"
/>
<path stroke="#808080" vector-effect="non-scaling-stroke" d="
  M 555.74 816.80
  C 557.46 818.39 560.86 819.60 563.43 821.36
  Q 581.97 834.04 588.56 855.91
  A 1.38 1.38 0.0 0 0 590.21 856.85
  C 618.84 849.86 640.41 825.42 645.13 796.74
  C 648.71 775.05 643.03 752.45 628.74 735.75
  Q 611.78 715.92 587.89 710.76
  C 560.50 704.85 532.99 713.13 514.30 734.32
  C 493.05 758.41 490.37 791.38 504.29 819.74
  A 1.81 1.80 -30.3 0 0 506.93 820.43
  Q 513.40 816.00 514.97 809.20
  C 517.26 799.27 512.92 790.56 503.21 786.77
  A 1.04 1.03 10.9 0 1 502.55 785.81
  Q 502.42 772.43 507.25 759.67
  A 0.85 0.84 23.7 0 1 508.43 759.22
  C 541.79 776.29 553.79 815.99 533.65 848.22
  A 1.16 1.15 31.5 0 0 534.04 849.83
  Q 542.94 855.11 553.20 857.16
  A 0.80 0.79 -81.6 0 0 554.15 856.45
  Q 554.79 848.85 549.92 843.04
  A 0.81 0.80 -52.8 0 1 549.81 842.18
  C 553.23 834.96 554.87 825.38 555.18 817.03
  A 0.34 0.33 22.2 0 1 555.74 816.80"
/>
<path stroke="#808080" vector-effect="non-scaling-stroke" d="
  M 1360.08 889.97
  C 1360.10 908.54 1359.63 929.90 1367.11 947.43
  C 1374.45 964.65 1389.87 967.10 1406.67 967.08
  C 1423.46 967.05 1438.88 964.55 1446.17 947.30
  C 1453.59 929.75 1453.05 908.39 1453.02 889.83
  C 1452.99 871.26 1453.46 849.90 1445.99 832.37
  C 1438.64 815.14 1423.22 812.69 1406.43 812.72
  C 1389.63 812.75 1374.22 815.25 1366.93 832.49
  C 1359.51 850.05 1360.05 871.40 1360.08 889.97"
/>
<path stroke="#808080" vector-effect="non-scaling-stroke" d="
  M 1072.89 915.48
  C 1072.97 943.42 1090.52 967.40 1120.21 966.69
  C 1150.82 965.95 1165.76 944.30 1165.68 915.21
  C 1165.59 886.13 1150.53 864.57 1119.91 864.01
  C 1090.22 863.46 1072.81 887.55 1072.89 915.48"
/>
<path stroke="#808080" vector-effect="non-scaling-stroke" d="
  M 1398.63 921.61
  A 2.58 2.58 0.0 0 0 1401.02 920.01
  L 1424.91 861.56
  A 2.58 2.58 0.0 0 0 1422.52 858.00
  L 1414.92 858.00
  A 2.58 2.58 0.0 0 0 1412.53 859.60
  L 1388.64 918.05
  A 2.58 2.58 0.0 0 0 1391.03 921.61
  L 1398.63 921.61"
/>
<path stroke="#808080" vector-effect="non-scaling-stroke" d="
  M 923.52 910.07
  L 1015.16 910.07
  A 0.21 0.21 0.0 0 0 1015.37 909.86
  L 1015.37 909.51
  A 46.18 46.03 -90.0 0 0 969.34 863.33
  A 46.18 46.03 90.0 0 0 923.31 909.51
  L 923.31 909.86
  A 0.21 0.21 0.0 0 0 923.52 910.07"
/>
</g>
<path fill="#000000" d="
  M 1773.00 0.00
  L 1773.00 1773.00
  L 0.00 1773.00
  L 0.00 0.00
  L 1773.00 0.00
  Z
  M 468.63 887.86
  C 470.86 897.52 476.17 906.75 482.94 914.55
  A 1.00 0.98 35.2 0 1 483.12 915.55
  L 480.87 921.52
  A 2.32 2.31 43.3 0 0 480.93 923.32
  L 486.63 935.87
  A 1.20 1.20 0.0 0 1 486.03 937.46
  L 478.99 940.66
  A 0.57 0.57 0.0 0 0 478.71 941.41
  L 486.66 958.89
  A 1.13 1.13 0.0 0 1 486.10 960.38
  L 472.39 966.61
  A 0.57 0.57 0.0 0 0 472.11 967.37
  L 476.38 976.77
  A 0.87 0.87 0.0 0 1 475.95 977.92
  L 461.55 984.46
  A 0.30 0.29 65.6 0 0 461.41 984.85
  L 472.78 1009.87
  A 0.91 0.90 65.8 0 1 472.33 1011.07
  L 450.62 1020.94
  A 0.22 0.21 -24.8 0 0 450.51 1021.22
  L 453.39 1027.56
  A 0.62 0.62 0.0 0 1 453.09 1028.38
  L 445.12 1032.00
  A 0.48 0.48 0.0 0 0 444.88 1032.64
  L 453.91 1052.51
  A 0.94 0.94 0.0 0 1 453.44 1053.76
  L 433.97 1062.61
  A 0.26 0.25 -25.1 0 0 433.84 1062.95
  L 442.26 1081.47
  A 0.45 0.45 0.0 0 0 442.86 1081.70
  L 454.10 1076.59
  A 2.34 2.32 88.2 0 0 455.33 1075.27
  L 496.92 965.12
  A 0.69 0.68 20.7 0 1 497.81 964.72
  L 507.95 968.54
  A 0.94 0.93 -69.4 0 1 508.49 969.74
  L 471.24 1068.40
  A 0.28 0.28 0.0 0 0 471.61 1068.75
  L 482.37 1063.85
  A 2.05 2.05 0.0 0 0 483.44 1062.71
  L 531.51 935.38
  A 0.61 0.61 0.0 0 1 532.05 934.98
  C 566.33 932.77 591.10 905.88 591.41 871.59
  C 591.42 870.37 591.01 869.47 591.07 868.58
  A 0.67 0.67 0.0 0 1 591.55 867.98
  Q 625.38 858.52 643.08 831.27
  C 667.87 793.09 659.20 742.79 622.79 715.22
  C 605.37 702.03 582.47 695.57 560.26 698.54
  C 515.90 704.45 482.54 742.64 484.67 787.92
  Q 485.49 805.16 492.93 821.02
  A 0.74 0.73 80.7 0 1 492.18 822.07
  Q 489.91 821.81 487.58 820.41
  Q 479.53 815.59 478.48 806.46
  C 478.24 804.33 478.67 801.95 479.00 799.63
  A 10.15 10.08 -44.8 0 0 479.02 796.87
  Q 476.05 774.41 483.62 753.02
  A 0.21 0.20 10.4 0 0 483.43 752.75
  C 449.35 751.80 421.93 777.20 419.25 811.00
  C 418.94 814.96 419.59 819.68 419.45 822.92
  A 1.33 1.31 -16.4 0 1 418.87 823.97
  L 413.74 827.46
  A 1.86 1.83 78.4 0 0 412.97 828.65
  L 410.29 842.91
  A 0.57 0.56 -79.1 0 1 409.64 843.36
  L 401.41 841.81
  A 0.55 0.55 0.0 0 0 400.77 842.25
  L 397.20 861.25
  A 1.05 1.05 0.0 0 1 395.98 862.09
  L 380.98 859.27
  A 0.47 0.47 0.0 0 0 380.43 859.64
  L 378.48 870.04
  A 0.75 0.74 -79.2 0 1 377.61 870.64
  L 362.21 867.74
  A 0.56 0.56 0.0 0 0 361.56 868.19
  L 356.50 895.11
  A 0.74 0.73 -79.1 0 1 355.64 895.70
  L 332.37 891.33
  A 0.56 0.55 10.4 0 0 331.72 891.77
  L 330.54 898.05
  A 0.85 0.84 -79.3 0 1 329.56 898.72
  L 321.38 897.18
  A 0.66 0.65 -79.5 0 0 320.62 897.71
  L 316.60 919.08
  A 0.88 0.87 10.7 0 1 315.57 919.78
  L 294.72 915.87
  A 0.49 0.49 0.0 0 0 294.14 916.26
  L 290.41 936.11
  A 0.47 0.47 0.0 0 0 290.78 936.65
  L 302.50 938.85
  A 3.24 3.21 -56.7 0 0 304.90 938.34
  L 402.08 872.14
  A 0.72 0.72 0.0 0 1 403.08 872.34
  L 409.24 881.38
  A 0.80 0.80 0.0 0 1 409.03 882.49
  L 321.19 942.33
  A 0.03 0.03 0.0 0 0 321.20 942.39
  L 333.79 944.76
  A 0.95 0.91 32.2 0 0 334.48 944.62
  L 446.61 868.23
  A 2.36 2.36 0.0 0 1 449.12 868.15
  C 474.42 883.05 505.16 879.22 525.89 858.55
  A 1.10 1.09 -52.2 0 1 527.22 858.38
  Q 537.03 864.23 548.10 867.24
  A 0.89 0.88 32.2 0 1 548.45 868.76
  Q 539.70 876.29 528.21 872.27
  A 1.10 1.09 35.4 0 0 527.17 872.44
  Q 501.55 892.22 469.13 887.31
  A 0.45 0.45 0.0 0 0 468.63 887.86
  Z
  M 1347.23 889.96
  C 1347.27 916.36 1346.85 960.99 1375.81 973.71
  C 1385.33 977.89 1396.36 979.21 1406.66 979.20
  C 1416.96 979.18 1427.98 977.83 1437.49 973.63
  C 1466.42 960.84 1465.88 916.21 1465.84 889.80
  C 1465.81 863.40 1466.23 818.77 1437.27 806.05
  C 1427.75 801.87 1416.72 800.55 1406.42 800.57
  C 1396.12 800.58 1385.10 801.93 1375.59 806.14
  C 1346.66 818.93 1347.20 863.56 1347.23 889.96
  Z
  M 1074.63 955.87
  A 0.51 0.51 0.0 0 1 1075.42 955.49
  Q 1075.79 955.72 1076.08 956.11
  C 1085.13 968.31 1095.79 975.34 1110.59 977.60
  C 1129.17 980.43 1149.69 975.01 1162.34 960.32
  C 1178.49 941.59 1180.99 915.08 1174.33 891.84
  C 1168.77 872.48 1154.26 858.09 1134.30 854.06
  C 1111.36 849.43 1087.77 856.15 1076.40 877.94
  A 1.43 1.43 0.0 0 1 1073.70 877.28
  L 1073.70 806.06
  A 2.54 2.53 8.8 0 0 1071.92 803.64
  C 1070.19 803.10 1064.24 802.74 1062.61 804.08
  A 1.49 1.47 -13.9 0 0 1062.12 804.88
  Q 1061.61 807.07 1061.61 807.99
  Q 1061.57 921.50 1061.60 971.25
  C 1061.60 972.97 1062.17 974.94 1064.22 975.27
  C 1068.06 975.87 1073.17 976.53 1073.48 971.25
  Q 1073.97 962.71 1074.63 955.87
  Z
  M 1260.75 964.05
  A 0.59 0.59 0.0 0 1 1260.16 964.64
  L 1211.54 964.64
  A 2.37 2.37 0.0 0 0 1209.27 966.32
  Q 1207.95 970.67 1209.38 974.07
  A 2.46 2.46 0.0 0 0 1211.65 975.58
  L 1315.52 975.58
  A 2.48 2.48 0.0 0 0 1317.93 973.70
  Q 1318.87 969.99 1317.89 966.41
  A 2.42 2.41 -7.5 0 0 1315.56 964.63
  L 1273.61 964.63
  A 0.75 0.75 0.0 0 1 1272.86 963.88
  Q 1272.88 885.61 1272.85 806.76
  Q 1272.85 803.37 1269.60 803.25
  Q 1265.44 803.11 1261.57 803.32
  A 3.76 3.73 -67.5 0 0 1259.25 804.29
  C 1248.17 814.31 1233.93 822.08 1218.86 822.81
  Q 1216.09 822.95 1215.90 825.74
  Q 1215.63 829.43 1216.17 831.88
  A 2.88 2.87 -4.2 0 0 1218.78 834.13
  Q 1222.32 834.37 1226.53 833.57
  Q 1245.38 829.96 1259.75 816.96
  A 0.60 0.60 0.0 0 1 1260.75 817.40
  L 1260.75 964.05
  Z
  M 923.08 921.59
  Q 947.58 921.51 1018.26 921.60
  C 1021.63 921.60 1024.50 921.08 1025.27 917.51
  C 1025.98 914.17 1025.97 911.89 1025.79 908.16
  C 1024.83 887.59 1014.56 868.29 996.35 858.62
  C 979.50 849.68 958.48 850.08 941.69 859.15
  C 923.50 868.98 912.68 888.08 911.08 908.51
  C 908.31 944.05 928.60 974.75 965.29 978.31
  Q 992.94 980.99 1013.60 962.86
  Q 1015.87 960.87 1017.24 958.97
  A 2.09 2.08 -45.2 0 0 1017.24 956.54
  Q 1015.03 953.44 1012.66 951.80
  A 2.16 2.16 0.0 0 0 1009.94 952.02
  Q 994.55 966.82 974.41 967.38
  C 946.65 968.16 925.85 949.20 922.75 921.96
  A 0.33 0.33 0.0 0 1 923.08 921.59
  Z
  M 807.85 879.35
  Q 808.37 879.35 808.49 879.76
  Q 815.62 903.56 835.72 971.52
  C 837.06 976.06 840.30 975.69 844.19 975.60
  Q 849.14 975.48 849.88 975.27
  C 852.59 974.52 852.87 971.85 853.60 969.34
  Q 856.92 957.90 884.05 858.26
  Q 884.88 855.24 882.02 854.96
  Q 878.74 854.65 875.49 854.93
  C 872.96 855.14 871.88 856.35 871.25 858.76
  Q 851.36 935.58 844.77 960.93
  A 0.65 0.65 0.0 0 1 843.68 961.22
  Q 843.33 960.87 843.21 960.46
  Q 841.49 954.61 813.51 856.92
  A 2.58 2.58 0.0 0 0 811.48 855.08
  Q 809.95 854.81 807.84 854.81
  Q 805.74 854.81 804.21 855.09
  A 2.58 2.58 0.0 0 0 802.18 856.92
  Q 774.22 954.62 772.50 960.47
  Q 772.38 960.88 772.03 961.23
  A 0.65 0.65 0.0 0 1 770.94 960.94
  Q 764.35 935.59 744.44 858.77
  C 743.81 856.36 742.73 855.15 740.20 854.94
  Q 736.95 854.66 733.67 854.97
  Q 730.81 855.26 731.64 858.28
  Q 758.79 957.91 762.11 969.35
  C 762.84 971.86 763.12 974.53 765.83 975.28
  Q 766.57 975.49 771.52 975.61
  C 775.41 975.70 778.65 976.07 779.99 971.53
  Q 800.08 903.56 807.20 879.76
  Q 807.32 879.35 807.85 879.35
  Z"
/>
<path fill="#ffffff" d="
  M 469.13 887.31
  Q 501.55 892.22 527.17 872.44
  A 1.10 1.09 35.4 0 1 528.21 872.27
  Q 539.70 876.29 548.45 868.76
  A 0.89 0.88 32.2 0 0 548.10 867.24
  Q 537.03 864.23 527.22 858.38
  A 1.10 1.09 -52.2 0 0 525.89 858.55
  C 505.16 879.22 474.42 883.05 449.12 868.15
  A 2.36 2.36 0.0 0 0 446.61 868.23
  L 334.48 944.62
  A 0.95 0.91 32.2 0 1 333.79 944.76
  L 321.20 942.39
  A 0.03 0.03 0.0 0 1 321.19 942.33
  L 409.03 882.49
  A 0.80 0.80 0.0 0 0 409.24 881.38
  L 403.08 872.34
  A 0.72 0.72 0.0 0 0 402.08 872.14
  L 304.90 938.34
  A 3.24 3.21 -56.7 0 1 302.50 938.85
  L 290.78 936.65
  A 0.47 0.47 0.0 0 1 290.41 936.11
  L 294.14 916.26
  A 0.49 0.49 0.0 0 1 294.72 915.87
  L 315.57 919.78
  A 0.88 0.87 10.7 0 0 316.60 919.08
  L 320.62 897.71
  A 0.66 0.65 -79.5 0 1 321.38 897.18
  L 329.56 898.72
  A 0.85 0.84 -79.3 0 0 330.54 898.05
  L 331.72 891.77
  A 0.56 0.55 10.4 0 1 332.37 891.33
  L 355.64 895.70
  A 0.74 0.73 -79.1 0 0 356.50 895.11
  L 361.56 868.19
  A 0.56 0.56 0.0 0 1 362.21 867.74
  L 377.61 870.64
  A 0.75 0.74 -79.2 0 0 378.48 870.04
  L 380.43 859.64
  A 0.47 0.47 0.0 0 1 380.98 859.27
  L 395.98 862.09
  A 1.05 1.05 0.0 0 0 397.20 861.25
  L 400.77 842.25
  A 0.55 0.55 0.0 0 1 401.41 841.81
  L 409.64 843.36
  A 0.57 0.56 -79.1 0 0 410.29 842.91
  L 412.97 828.65
  A 1.86 1.83 78.4 0 1 413.74 827.46
  L 418.87 823.97
  A 1.33 1.31 -16.4 0 0 419.45 822.92
  C 419.59 819.68 418.94 814.96 419.25 811.00
  C 421.93 777.20 449.35 751.80 483.43 752.75
  A 0.21 0.20 10.4 0 1 483.62 753.02
  Q 476.05 774.41 479.02 796.87
  A 10.15 10.08 -44.8 0 1 479.00 799.63
  C 478.67 801.95 478.24 804.33 478.48 806.46
  Q 479.53 815.59 487.58 820.41
  Q 489.91 821.81 492.18 822.07
  A 0.74 0.73 80.7 0 0 492.93 821.02
  Q 485.49 805.16 484.67 787.92
  C 482.54 742.64 515.90 704.45 560.26 698.54
  C 582.47 695.57 605.37 702.03 622.79 715.22
  C 659.20 742.79 667.87 793.09 643.08 831.27
  Q 625.38 858.52 591.55 867.98
  A 0.67 0.67 0.0 0 0 591.07 868.58
  C 591.01 869.47 591.42 870.37 591.41 871.59
  C 591.10 905.88 566.33 932.77 532.05 934.98
  A 0.61 0.61 0.0 0 0 531.51 935.38
  L 483.44 1062.71
  A 2.05 2.05 0.0 0 1 482.37 1063.85
  L 471.61 1068.75
  A 0.28 0.28 0.0 0 1 471.24 1068.40
  L 508.49 969.74
  A 0.94 0.93 -69.4 0 0 507.95 968.54
  L 497.81 964.72
  A 0.69 0.68 20.7 0 0 496.92 965.12
  L 455.33 1075.27
  A 2.34 2.32 88.2 0 1 454.10 1076.59
  L 442.86 1081.70
  A 0.45 0.45 0.0 0 1 442.26 1081.47
  L 433.84 1062.95
  A 0.26 0.25 -25.1 0 1 433.97 1062.61
  L 453.44 1053.76
  A 0.94 0.94 0.0 0 0 453.91 1052.51
  L 444.88 1032.64
  A 0.48 0.48 0.0 0 1 445.12 1032.00
  L 453.09 1028.38
  A 0.62 0.62 0.0 0 0 453.39 1027.56
  L 450.51 1021.22
  A 0.22 0.21 -24.8 0 1 450.62 1020.94
  L 472.33 1011.07
  A 0.91 0.90 65.8 0 0 472.78 1009.87
  L 461.41 984.85
  A 0.30 0.29 65.6 0 1 461.55 984.46
  L 475.95 977.92
  A 0.87 0.87 0.0 0 0 476.38 976.77
  L 472.11 967.37
  A 0.57 0.57 0.0 0 1 472.39 966.61
  L 486.10 960.38
  A 1.13 1.13 0.0 0 0 486.66 958.89
  L 478.71 941.41
  A 0.57 0.57 0.0 0 1 478.99 940.66
  L 486.03 937.46
  A 1.20 1.20 0.0 0 0 486.63 935.87
  L 480.93 923.32
  A 2.32 2.31 43.3 0 1 480.87 921.52
  L 483.12 915.55
  A 1.00 0.98 35.2 0 0 482.94 914.55
  C 476.17 906.75 470.86 897.52 468.63 887.86
  A 0.45 0.45 0.0 0 1 469.13 887.31
  Z
  M 555.74 816.80
  C 557.46 818.39 560.86 819.60 563.43 821.36
  Q 581.97 834.04 588.56 855.91
  A 1.38 1.38 0.0 0 0 590.21 856.85
  C 618.84 849.86 640.41 825.42 645.13 796.74
  C 648.71 775.05 643.03 752.45 628.74 735.75
  Q 611.78 715.92 587.89 710.76
  C 560.50 704.85 532.99 713.13 514.30 734.32
  C 493.05 758.41 490.37 791.38 504.29 819.74
  A 1.81 1.80 -30.3 0 0 506.93 820.43
  Q 513.40 816.00 514.97 809.20
  C 517.26 799.27 512.92 790.56 503.21 786.77
  A 1.04 1.03 10.9 0 1 502.55 785.81
  Q 502.42 772.43 507.25 759.67
  A 0.85 0.84 23.7 0 1 508.43 759.22
  C 541.79 776.29 553.79 815.99 533.65 848.22
  A 1.16 1.15 31.5 0 0 534.04 849.83
  Q 542.94 855.11 553.20 857.16
  A 0.80 0.79 -81.6 0 0 554.15 856.45
  Q 554.79 848.85 549.92 843.04
  A 0.81 0.80 -52.8 0 1 549.81 842.18
  C 553.23 834.96 554.87 825.38 555.18 817.03
  A 0.34 0.33 22.2 0 1 555.74 816.80
  Z"
/>
<path fill="#000000" d="
  M 555.18 817.03
  C 554.87 825.38 553.23 834.96 549.81 842.18
  A 0.81 0.80 -52.8 0 0 549.92 843.04
  Q 554.79 848.85 554.15 856.45
  A 0.80 0.79 -81.6 0 1 553.20 857.16
  Q 542.94 855.11 534.04 849.83
  A 1.16 1.15 31.5 0 1 533.65 848.22
  C 553.79 815.99 541.79 776.29 508.43 759.22
  A 0.85 0.84 23.7 0 0 507.25 759.67
  Q 502.42 772.43 502.55 785.81
  A 1.04 1.03 10.9 0 0 503.21 786.77
  C 512.92 790.56 517.26 799.27 514.97 809.20
  Q 513.40 816.00 506.93 820.43
  A 1.81 1.80 -30.3 0 1 504.29 819.74
  C 490.37 791.38 493.05 758.41 514.30 734.32
  C 532.99 713.13 560.50 704.85 587.89 710.76
  Q 611.78 715.92 628.74 735.75
  C 643.03 752.45 648.71 775.05 645.13 796.74
  C 640.41 825.42 618.84 849.86 590.21 856.85
  A 1.38 1.38 0.0 0 1 588.56 855.91
  Q 581.97 834.04 563.43 821.36
  C 560.86 819.60 557.46 818.39 555.74 816.80
  A 0.34 0.33 22.2 0 0 555.18 817.03
  Z"
/>
<path fill="#ffffff" d="
  M 1406.42 800.57
  C 1416.72 800.55 1427.75 801.87 1437.27 806.05
  C 1466.23 818.77 1465.81 863.40 1465.84 889.80
  C 1465.88 916.21 1466.42 960.84 1437.49 973.63
  C 1427.98 977.83 1416.96 979.18 1406.66 979.20
  C 1396.36 979.21 1385.33 977.89 1375.81 973.71
  C 1346.85 960.99 1347.27 916.36 1347.23 889.96
  C 1347.20 863.56 1346.66 818.93 1375.59 806.14
  C 1385.10 801.93 1396.12 800.58 1406.42 800.57
  Z
  M 1360.08 889.97
  C 1360.10 908.54 1359.63 929.90 1367.11 947.43
  C 1374.45 964.65 1389.87 967.10 1406.67 967.08
  C 1423.46 967.05 1438.88 964.55 1446.17 947.30
  C 1453.59 929.75 1453.05 908.39 1453.02 889.83
  C 1452.99 871.26 1453.46 849.90 1445.99 832.37
  C 1438.64 815.14 1423.22 812.69 1406.43 812.72
  C 1389.63 812.75 1374.22 815.25 1366.93 832.49
  C 1359.51 850.05 1360.05 871.40 1360.08 889.97
  Z"
/>
<path fill="#ffffff" d="
  M 1074.63 955.87
  Q 1073.97 962.71 1073.48 971.25
  C 1073.17 976.53 1068.06 975.87 1064.22 975.27
  C 1062.17 974.94 1061.60 972.97 1061.60 971.25
  Q 1061.57 921.50 1061.61 807.99
  Q 1061.61 807.07 1062.12 804.88
  A 1.49 1.47 -13.9 0 1 1062.61 804.08
  C 1064.24 802.74 1070.19 803.10 1071.92 803.64
  A 2.54 2.53 8.8 0 1 1073.70 806.06
  L 1073.70 877.28
  A 1.43 1.43 0.0 0 0 1076.40 877.94
  C 1087.77 856.15 1111.36 849.43 1134.30 854.06
  C 1154.26 858.09 1168.77 872.48 1174.33 891.84
  C 1180.99 915.08 1178.49 941.59 1162.34 960.32
  C 1149.69 975.01 1129.17 980.43 1110.59 977.60
  C 1095.79 975.34 1085.13 968.31 1076.08 956.11
  Q 1075.79 955.72 1075.42 955.49
  A 0.51 0.51 0.0 0 0 1074.63 955.87
  Z
  M 1072.89 915.48
  C 1072.97 943.42 1090.52 967.40 1120.21 966.69
  C 1150.82 965.95 1165.76 944.30 1165.68 915.21
  C 1165.59 886.13 1150.53 864.57 1119.91 864.01
  C 1090.22 863.46 1072.81 887.55 1072.89 915.48
  Z"
/>
<path fill="#ffffff" d="
  M 1260.75 964.05
  L 1260.75 817.40
  A 0.60 0.60 0.0 0 0 1259.75 816.96
  Q 1245.38 829.96 1226.53 833.57
  Q 1222.32 834.37 1218.78 834.13
  A 2.88 2.87 -4.2 0 1 1216.17 831.88
  Q 1215.63 829.43 1215.90 825.74
  Q 1216.09 822.95 1218.86 822.81
  C 1233.93 822.08 1248.17 814.31 1259.25 804.29
  A 3.76 3.73 -67.5 0 1 1261.57 803.32
  Q 1265.44 803.11 1269.60 803.25
  Q 1272.85 803.37 1272.85 806.76
  Q 1272.88 885.61 1272.86 963.88
  A 0.75 0.75 0.0 0 0 1273.61 964.63
  L 1315.56 964.63
  A 2.42 2.41 -7.5 0 1 1317.89 966.41
  Q 1318.87 969.99 1317.93 973.70
  A 2.48 2.48 0.0 0 1 1315.52 975.58
  L 1211.65 975.58
  A 2.46 2.46 0.0 0 1 1209.38 974.07
  Q 1207.95 970.67 1209.27 966.32
  A 2.37 2.37 0.0 0 1 1211.54 964.64
  L 1260.16 964.64
  A 0.59 0.59 0.0 0 0 1260.75 964.05
  Z"
/>
<path fill="#000000" d="
  M 1406.43 812.72
  C 1423.22 812.69 1438.64 815.14 1445.99 832.37
  C 1453.46 849.90 1452.99 871.26 1453.02 889.83
  C 1453.05 908.39 1453.59 929.75 1446.17 947.30
  C 1438.88 964.55 1423.46 967.05 1406.67 967.08
  C 1389.87 967.10 1374.45 964.65 1367.11 947.43
  C 1359.63 929.90 1360.10 908.54 1360.08 889.97
  C 1360.05 871.40 1359.51 850.05 1366.93 832.49
  C 1374.22 815.25 1389.63 812.75 1406.43 812.72
  Z
  M 1398.63 921.61
  A 2.58 2.58 0.0 0 0 1401.02 920.01
  L 1424.91 861.56
  A 2.58 2.58 0.0 0 0 1422.52 858.00
  L 1414.92 858.00
  A 2.58 2.58 0.0 0 0 1412.53 859.60
  L 1388.64 918.05
  A 2.58 2.58 0.0 0 0 1391.03 921.61
  L 1398.63 921.61
  Z"
/>
<path fill="#ffffff" d="
  M 923.08 921.59
  A 0.33 0.33 0.0 0 0 922.75 921.96
  C 925.85 949.20 946.65 968.16 974.41 967.38
  Q 994.55 966.82 1009.94 952.02
  A 2.16 2.16 0.0 0 1 1012.66 951.80
  Q 1015.03 953.44 1017.24 956.54
  A 2.09 2.08 -45.2 0 1 1017.24 958.97
  Q 1015.87 960.87 1013.60 962.86
  Q 992.94 980.99 965.29 978.31
  C 928.60 974.75 908.31 944.05 911.08 908.51
  C 912.68 888.08 923.50 868.98 941.69 859.15
  C 958.48 850.08 979.50 849.68 996.35 858.62
  C 1014.56 868.29 1024.83 887.59 1025.79 908.16
  C 1025.97 911.89 1025.98 914.17 1025.27 917.51
  C 1024.50 921.08 1021.63 921.60 1018.26 921.60
  Q 947.58 921.51 923.08 921.59
  Z
  M 923.52 910.07
  L 1015.16 910.07
  A 0.21 0.21 0.0 0 0 1015.37 909.86
  L 1015.37 909.51
  A 46.18 46.03 -90.0 0 0 969.34 863.33
  A 46.18 46.03 90.0 0 0 923.31 909.51
  L 923.31 909.86
  A 0.21 0.21 0.0 0 0 923.52 910.07
  Z"
/>
<path fill="#ffffff" d="
  M 807.84 854.81
  Q 809.95 854.81 811.48 855.08
  A 2.58 2.58 0.0 0 1 813.51 856.92
  Q 841.49 954.61 843.21 960.46
  Q 843.33 960.87 843.68 961.22
  A 0.65 0.65 0.0 0 0 844.77 960.93
  Q 851.36 935.58 871.25 858.76
  C 871.88 856.35 872.96 855.14 875.49 854.93
  Q 878.74 854.65 882.02 854.96
  Q 884.88 855.24 884.05 858.26
  Q 856.92 957.90 853.60 969.34
  C 852.87 971.85 852.59 974.52 849.88 975.27
  Q 849.14 975.48 844.19 975.60
  C 840.30 975.69 837.06 976.06 835.72 971.52
  Q 815.62 903.56 808.49 879.76
  Q 808.37 879.35 807.85 879.35
  Q 807.32 879.35 807.20 879.76
  Q 800.08 903.56 779.99 971.53
  C 778.65 976.07 775.41 975.70 771.52 975.61
  Q 766.57 975.49 765.83 975.28
  C 763.12 974.53 762.84 971.86 762.11 969.35
  Q 758.79 957.91 731.64 858.28
  Q 730.81 855.26 733.67 854.97
  Q 736.95 854.66 740.20 854.94
  C 742.73 855.15 743.81 856.36 744.44 858.77
  Q 764.35 935.59 770.94 960.94
  A 0.65 0.65 0.0 0 0 772.03 961.23
  Q 772.38 960.88 772.50 960.47
  Q 774.22 954.62 802.18 856.92
  A 2.58 2.58 0.0 0 1 804.21 855.09
  Q 805.74 854.81 807.84 854.81
  Z"
/>
<path fill="#ffffff" d="
  M 1398.63 921.61
  L 1391.03 921.61
  A 2.58 2.58 0.0 0 1 1388.64 918.05
  L 1412.53 859.60
  A 2.58 2.58 0.0 0 1 1414.92 858.00
  L 1422.52 858.00
  A 2.58 2.58 0.0 0 1 1424.91 861.56
  L 1401.02 920.01
  A 2.58 2.58 0.0 0 1 1398.63 921.61
  Z"
/>
<path fill="#000000" d="
  M 923.52 910.07
  A 0.21 0.21 0.0 0 1 923.31 909.86
  L 923.31 909.51
  A 46.18 46.03 -90.0 0 1 969.34 863.33
  A 46.18 46.03 -90.0 0 1 1015.37 909.51
  L 1015.37 909.86
  A 0.21 0.21 0.0 0 1 1015.16 910.07
  L 923.52 910.07
  Z"
/>
<path fill="#000000" d="
  M 1165.68 915.21
  C 1165.76 944.30 1150.82 965.95 1120.21 966.69
  C 1090.52 967.40 1072.97 943.42 1072.89 915.48
  C 1072.81 887.55 1090.22 863.46 1119.91 864.01
  C 1150.53 864.57 1165.59 886.13 1165.68 915.21
  Z"
/>
</svg>
